<?xml version="1.0" standalone="no"?>
<!DOCTYPE svg PUBLIC "-//W3C//DTD SVG 20010904//EN"
 "http://www.w3.org/TR/2001/REC-SVG-20010904/DTD/svg10.dtd">
<svg version="1.0" xmlns="http://www.w3.org/2000/svg"
 width="500.000000pt" height="500.000000pt" viewBox="0 0 500.000000 500.000000"
 preserveAspectRatio="xMidYMid meet">

<g transform="translate(0.000000,500.000000) scale(0.100000,-0.100000)"
fill="#000000" stroke="none">
<path d="M1983 4166 c-60 -19 -104 -49 -157 -106 -59 -63 -87 -125 -94 -207
l-5 -62 -86 -3 -86 -3 -6 -50 c-16 -133 -140 -258 -273 -274 l-51 -6 -3 -284
c-2 -263 -4 -283 -20 -278 -9 2 -57 17 -107 32 -52 16 -125 29 -175 32 -78 5
-88 3 -120 -19 -76 -51 -84 -125 -30 -246 47 -102 150 -219 323 -369 84 -73
84 -73 -218 -73 -146 0 -265 -2 -265 -5 0 -3 29 -75 65 -160 36 -85 65 -158
65 -162 0 -5 -29 -78 -65 -163 -36 -85 -65 -156 -65 -157 0 -2 119 -3 265 -3
258 0 265 -1 265 -20 0 -17 7 -20 40 -20 l40 0 2 -202 3 -203 50 -6 c133 -16
258 -140 274 -273 l6 -51 955 0 955 0 6 51 c16 133 141 257 274 273 l50 6 3
203 2 202 35 0 c28 0 35 4 35 20 0 19 7 20 265 20 146 0 265 1 265 3 0 2 -29
72 -65 156 -36 84 -65 158 -65 163 0 5 29 78 65 163 36 85 65 157 65 160 0 3
-119 5 -265 5 l-265 0 0 30 c0 28 -3 30 -35 30 l-35 0 0 62 c0 60 2 64 44 108
74 76 178 221 215 300 46 98 55 191 22 244 -33 52 -93 72 -174 58 -34 -6 -72
-14 -84 -18 l-23 -6 -2 198 -3 199 -51 6 c-133 16 -257 141 -273 274 l-6 50
-205 3 -205 2 -17 48 c-44 122 -173 239 -318 288 -70 24 -235 24 -295 2 -39
-15 -44 -14 -130 15 -106 36 -242 46 -312 23z m265 -88 l63 -20 -44 -47 c-46
-49 -60 -71 -77 -118 -9 -24 -4 -21 32 19 162 179 429 209 613 70 67 -50 131
-147 146 -221 l12 -57 85 -29 c149 -51 253 -139 318 -270 32 -65 38 -88 42
-159 7 -135 -38 -230 -131 -278 -49 -25 -145 -34 -207 -19 -36 8 -50 7 -67 -5
-21 -13 -23 -22 -23 -96 0 -45 5 -111 11 -147 l12 -65 -43 -38 c-50 -44 -116
-77 -237 -117 -151 -51 -224 -62 -418 -66 -179 -4 -179 -3 -55 6 273 20 449
76 610 195 l65 48 -31 9 c-26 8 -38 5 -75 -19 -116 -73 -342 -150 -463 -158
-33 -2 -50 -2 -36 1 76 13 189 46 256 74 85 35 201 108 196 124 -8 31 -185 42
-330 21 -157 -23 -269 -57 -399 -122 -122 -61 -140 -62 -161 -7 -17 43 -40
185 -52 320 -9 101 -8 127 3 156 60 144 434 255 732 218 126 -15 198 -35 288
-79 42 -21 77 -35 77 -30 0 14 -113 97 -180 133 -115 60 -205 80 -360 79 -103
-1 -153 -6 -212 -22 -157 -42 -286 -106 -382 -188 -51 -44 -93 -45 -138 -5
-83 73 -113 220 -65 325 29 62 97 133 163 168 36 19 44 27 39 43 -4 11 -9 56
-12 100 -5 70 -2 87 18 130 71 151 226 204 417 143z m-574 -399 c-10 -11 -26
-25 -36 -30 -15 -8 -16 -6 -7 21 8 23 17 30 37 30 25 0 25 0 6 -21z m1726 -36
c41 -117 136 -212 253 -253 l52 -18 0 -179 c0 -161 -2 -178 -17 -181 -17 -3
-18 10 -18 161 l0 164 -74 37 c-90 44 -171 127 -216 221 -30 63 -32 65 -68 65
-22 0 -47 9 -62 20 l-25 20 78 -2 79 -3 18 -52z m-1871 -175 c-11 -41 -37 -63
-116 -100 l-63 -30 0 -254 c0 -252 0 -254 -20 -242 -20 13 -20 22 -18 271 l3
259 52 18 c52 18 128 65 152 94 19 23 21 20 10 -16z m2344 -536 c23 -25 26
-59 12 -112 -12 -44 -63 -141 -107 -203 -43 -60 -180 -208 -240 -258 l-59 -49
-125 0 -125 0 -47 39 c-26 21 -61 46 -79 55 -17 9 -34 20 -37 24 -3 5 21 36
53 69 l57 60 85 -42 c46 -24 88 -41 92 -38 5 3 -4 18 -19 34 l-28 30 63 -32
c45 -22 66 -28 73 -21 15 15 -38 63 -119 110 l-63 36 57 53 c32 29 66 55 76
58 11 4 46 -9 93 -34 91 -49 114 -53 90 -16 -20 30 -11 32 29 5 17 -11 36 -20
43 -20 36 0 -14 67 -70 95 -51 24 -73 44 -62 54 21 20 131 74 198 96 87 29
137 31 159 7z m-2781 -103 c72 -14 142 -37 208 -66 l55 -25 -35 -18 c-69 -36
-149 -130 -109 -130 6 0 31 12 57 27 l47 28 -23 -30 c-34 -43 -10 -44 51 -2
29 19 66 42 83 52 l32 18 70 -49 c39 -27 72 -52 72 -56 0 -4 -24 -23 -52 -41
-63 -41 -120 -96 -115 -110 7 -21 25 -17 75 17 37 25 49 29 42 16 -6 -10 -15
-22 -20 -25 -13 -8 -13 -25 -1 -25 5 0 45 23 89 51 l80 50 24 -23 c13 -13 42
-39 64 -58 l40 -35 -58 -42 -58 -43 -201 0 -202 0 -56 48 c-129 109 -229 226
-272 317 -40 84 -39 128 6 153 25 14 41 15 107 1z m1196 -346 c-16 -2 -40 -2
-55 0 -16 2 -3 4 27 4 30 0 43 -2 28 -4z m-161 -59 c-3 -3 -12 -4 -19 -1 -8 3
-5 6 6 6 11 1 17 -2 13 -5z m913 -94 l35 -19 -53 -1 c-50 0 -52 1 -40 20 15
24 14 24 58 0z m670 0 c0 -14 -7 -20 -22 -20 -20 0 -21 1 -3 20 10 11 20 20
22 20 1 0 3 -9 3 -20z m-574 -18 c-4 -3 -14 2 -24 12 -16 18 -16 18 6 6 13 -6
21 -14 18 -18z m612 -81 l32 -1 0 -295 0 -295 -35 0 c-19 0 -575 0 -1235 0
-660 0 -1218 0 -1240 0 l-40 0 0 295 0 294 93 3 c75 2 2311 1 2425 -1z m-2608
-311 l0 -250 -205 0 c-131 0 -205 4 -205 10 0 6 21 62 47 125 l47 115 -16 43
c-9 23 -32 79 -52 125 l-35 82 209 0 210 0 0 -250z m3114 168 c-20 -46 -43
-102 -52 -125 l-16 -43 47 -115 c26 -63 47 -119 47 -125 0 -6 -74 -10 -205
-10 l-205 0 0 250 0 250 210 0 209 0 -35 -82z m-2904 -672 l0 -145 73 -35 c92
-44 175 -128 218 -221 l31 -65 838 0 838 0 31 65 c43 93 126 177 218 221 l73
35 0 145 c0 138 1 144 20 144 20 0 20 -5 18 -161 l-3 -161 -52 -18 c-117 -41
-212 -136 -253 -253 l-18 -52 -870 -3 -870 -2 -21 58 c-49 131 -151 222 -298
268 -10 2 -13 44 -13 164 0 153 1 160 20 160 19 0 20 -7 20 -144z m764 30 c-5
-21 -3 -23 19 -19 32 6 44 -25 25 -64 -10 -22 -21 -28 -46 -29 -18 -1 -32 4
-32 11 0 31 24 125 32 125 4 0 6 -11 2 -24z m216 20 c0 -3 -4 -8 -10 -11 -5
-3 -10 -1 -10 4 0 6 5 11 10 11 6 0 10 -2 10 -4z m288 -19 c-4 -19 0 -22 21
-22 24 0 26 -3 23 -40 -2 -22 -8 -44 -13 -50 -7 -7 -8 5 -4 38 5 31 4 47 -3
47 -16 0 -42 -41 -42 -67 0 -13 -4 -23 -10 -23 -5 0 -10 5 -10 11 0 10 18 90
26 117 6 21 17 13 12 -11z m402 13 c0 -5 -4 -10 -10 -10 -5 0 -10 5 -10 10 0
6 5 10 10 10 6 0 10 -4 10 -10z m160 6 c0 -3 -4 -8 -10 -11 -5 -3 -10 -1 -10
4 0 6 5 11 10 11 6 0 10 -2 10 -4z m-1490 -56 c18 -47 24 -45 34 13 4 20 12
37 17 37 6 0 8 -9 5 -20 -6 -21 -10 -37 -20 -82 -9 -42 -22 -34 -42 25 l-18
52 -11 -47 c-9 -43 -25 -75 -25 -51 0 33 25 123 33 120 5 -1 17 -23 27 -47z
m693 2 c-16 -17 -17 -68 0 -76 6 -3 3 -4 -8 -3 -17 2 -20 10 -20 47 0 50 12
73 31 56 8 -8 8 -14 -3 -24z m-533 3 c27 -33 -22 -101 -57 -79 -25 15 -28 40
-9 69 18 28 47 32 66 10z m117 -1 c7 -20 -6 -84 -18 -84 -5 0 -7 11 -3 25 11
44 9 60 -6 60 -9 0 -21 -18 -30 -42 -19 -58 -29 -54 -18 6 9 44 12 48 40 49
17 0 31 -5 35 -14z m285 3 c-13 -6 -26 -25 -33 -50 -14 -51 -22 -41 -14 16 6
41 9 44 38 45 30 0 31 -1 9 -11z m64 -4 c-2 -10 -7 -33 -11 -50 -4 -18 -10
-33 -14 -33 -5 0 -4 23 2 50 5 28 14 50 19 50 5 0 7 -8 4 -17z m131 -33 c-5
-27 -14 -50 -19 -50 -5 0 -7 14 -3 33 11 52 16 67 24 67 5 0 4 -22 -2 -50z
m103 41 c0 -5 -9 -7 -20 -4 -25 7 -28 -22 -4 -35 25 -14 13 -47 -19 -50 -15
-2 -27 2 -27 8 0 6 5 8 10 5 6 -4 18 -4 27 -1 14 6 13 10 -7 31 -13 14 -20 31
-17 39 7 17 57 23 57 7z m272 2 c-26 -5 -48 -44 -38 -68 3 -10 12 -15 21 -11
8 3 15 1 15 -4 0 -14 -34 -12 -48 2 -29 29 3 89 46 87 24 -2 25 -2 4 -6z m62
-39 c-5 -37 -4 -46 7 -42 14 5 31 33 45 73 10 32 15 2 6 -41 -7 -36 -10 -39
-42 -39 -34 0 -35 1 -32 35 3 40 9 60 17 60 4 0 3 -21 -1 -46z m121 -8 c-4
-25 -11 -46 -16 -46 -12 0 -11 16 2 63 14 51 22 41 14 -17z m105 43 c0 -6 -7
-8 -16 -5 -29 11 -36 -5 -13 -30 12 -13 19 -30 16 -38 -7 -18 -52 -21 -63 -5
-4 7 0 9 14 5 26 -9 40 13 19 29 -17 12 -22 36 -10 48 11 11 53 8 53 -4z m56
-6 c-2 -10 -7 -33 -11 -50 -4 -18 -10 -33 -14 -33 -5 0 -4 23 2 50 5 28 14 50
19 50 5 0 7 -8 4 -17z m114 -17 c0 -39 -8 -66 -20 -66 -4 0 -4 17 0 37 5 20 7
40 4 45 -11 17 -34 -7 -45 -44 -13 -52 -22 -43 -14 14 6 43 8 45 41 46 32 1
34 0 34 -32z m108 12 c-2 -17 -11 -24 -30 -26 -16 -2 -28 -7 -28 -11 0 -14 29
-33 40 -26 5 3 10 1 10 -5 0 -6 -12 -10 -27 -8 -54 6 -36 98 18 98 15 0 20 -6
17 -22z m-1345 -25 c-7 -2 -21 -2 -30 0 -10 3 -4 5 12 5 17 0 24 -2 18 -5z"/>
<path d="M2160 2045 c-10 -12 -10 -15 3 -15 8 0 20 7 27 15 10 12 10 15 -3 15
-8 0 -20 -7 -27 -15z"/>
<path d="M2283 2013 c-7 -2 -13 -22 -13 -43 0 -39 11 -50 51 -50 11 0 19 -7
19 -16 0 -13 -7 -15 -40 -9 -24 4 -40 3 -40 -3 0 -20 30 -33 67 -30 37 3 38 4
38 43 0 38 -2 40 -32 43 -25 2 -33 8 -33 23 0 12 7 19 20 19 11 0 20 -4 20
-10 0 -5 7 -10 15 -10 20 0 19 36 -1 44 -18 7 -53 7 -71 -1z"/>
<path d="M2460 2005 c-10 -12 -10 -15 3 -15 8 0 20 7 27 15 10 12 10 15 -3 15
-8 0 -20 -7 -27 -15z"/>
<path d="M2968 2009 c-14 -8 -18 -24 -18 -73 0 -69 6 -76 60 -76 16 0 35 3 44
6 20 8 21 44 1 44 -8 0 -15 -4 -15 -10 0 -5 -11 -10 -25 -10 -23 0 -25 3 -25
50 0 47 2 50 25 50 14 0 25 -4 25 -10 0 -5 7 -10 15 -10 22 0 19 27 -4 40 -25
13 -61 12 -83 -1z"/>
<path d="M3533 2013 c-7 -2 -13 -22 -13 -43 0 -39 11 -50 51 -50 11 0 19 -7
19 -16 0 -13 -7 -15 -40 -9 -24 4 -40 3 -40 -3 0 -20 30 -33 67 -30 37 3 38 4
38 43 0 38 -2 40 -32 43 -25 2 -33 8 -33 23 0 12 7 19 20 19 11 0 20 -4 20
-10 0 -5 7 -10 15 -10 20 0 19 36 -1 44 -18 7 -53 7 -71 -1z"/>
<path d="M1428 1935 c-25 -71 -25 -75 -7 -75 10 0 19 7 19 15 0 10 11 15 35
15 24 0 35 -5 35 -15 0 -8 7 -15 15 -15 20 0 18 13 -9 85 -34 88 -54 86 -88
-10z m61 -7 c1 -5 -6 -8 -14 -8 -16 0 -19 9 -8 36 6 16 7 16 14 -2 4 -10 8
-22 8 -26z"/>
<path d="M1590 1935 c0 -59 3 -75 14 -75 11 0 16 14 18 48 l3 47 30 -47 c17
-28 38 -48 48 -48 15 0 17 10 17 75 0 68 -2 75 -19 75 -16 0 -20 -8 -23 -42
l-3 -42 -28 42 c-42 65 -57 57 -57 -33z"/>
<path d="M1770 1935 l0 -76 58 3 57 3 0 70 0 70 -57 3 -58 3 0 -76z m90 5 c0
-47 -2 -50 -25 -50 -23 0 -25 3 -25 50 0 47 2 50 25 50 23 0 25 -3 25 -50z"/>
<path d="M1950 1936 c0 -69 2 -76 19 -76 15 0 21 8 23 33 l4 32 19 -32 c11
-18 28 -33 38 -33 16 0 16 2 3 29 -10 19 -12 31 -5 38 6 6 9 26 7 44 -3 33 -4
34 -55 37 l-53 3 0 -75z m80 29 c0 -18 -5 -25 -20 -25 -15 0 -20 7 -20 25 0
18 5 25 20 25 15 0 20 -7 20 -25z"/>
<path d="M2120 1935 l0 -75 50 0 c38 0 50 4 50 15 0 10 -10 15 -30 15 -23 0
-30 4 -30 20 0 13 7 20 20 20 11 0 20 5 20 10 0 6 -9 10 -20 10 -13 0 -20 7
-20 20 0 16 7 20 30 20 17 0 30 5 30 10 0 6 -22 10 -50 10 l-50 0 0 -75z"/>
<path d="M2640 1936 c0 -69 2 -76 19 -76 15 0 21 8 23 33 l4 32 19 -32 c11
-18 28 -33 38 -33 16 0 16 2 3 29 -10 19 -12 31 -5 38 6 6 9 26 7 44 -3 33 -4
34 -55 37 l-53 3 0 -75z m80 29 c0 -18 -5 -25 -20 -25 -15 0 -20 7 -20 25 0
18 5 25 20 25 15 0 20 -7 20 -25z"/>
<path d="M2810 1935 l0 -75 51 0 c58 0 66 23 10 28 -24 3 -31 8 -29 20 2 9 13
18 26 20 30 5 28 22 -3 22 -18 0 -25 5 -25 20 0 16 7 20 35 20 19 0 35 5 35
10 0 6 -22 10 -50 10 l-50 0 0 -75z"/>
<path d="M3120 1935 c0 -68 2 -75 20 -75 18 0 20 7 20 75 0 68 -2 75 -20 75
-18 0 -20 -7 -20 -75z"/>
<path d="M3210 1936 c0 -69 2 -76 20 -76 15 0 20 7 20 29 0 26 4 30 33 33 30
3 32 5 32 43 l0 40 -52 3 -53 3 0 -75z m80 29 c0 -18 -5 -25 -20 -25 -15 0
-20 7 -20 25 0 18 5 25 20 25 15 0 20 -7 20 -25z"/>
<path d="M3370 1935 l0 -75 50 0 c38 0 50 4 50 15 0 10 -10 15 -30 15 -23 0
-30 4 -30 20 0 13 7 20 20 20 11 0 20 5 20 10 0 6 -9 10 -20 10 -13 0 -20 7
-20 20 0 16 7 20 30 20 17 0 30 5 30 10 0 6 -22 10 -50 10 l-50 0 0 -75z"/>
<path d="M2116 1404 c-20 -19 -17 -59 4 -59 19 0 38 51 23 66 -7 7 -15 5 -27
-7z"/>
<path d="M1802 1408 c-15 -15 -16 -55 0 -64 15 -9 40 25 36 50 -4 24 -20 30
-36 14z"/>
<path d="M3353 1413 c-18 -6 -16 -23 1 -23 17 0 30 16 19 23 -5 2 -14 2 -20 0z"/>
</g>
</svg>
