<?xml version="1.0" standalone="no"?>
<!DOCTYPE svg PUBLIC "-//W3C//DTD SVG 20010904//EN"
 "http://www.w3.org/TR/2001/REC-SVG-20010904/DTD/svg10.dtd">
<svg version="1.0" xmlns="http://www.w3.org/2000/svg"
 width="500.000000pt" height="500.000000pt" viewBox="0 0 500.000000 500.000000"
 preserveAspectRatio="xMidYMid meet">

<g transform="translate(0.000000,500.000000) scale(0.100000,-0.100000)"
fill="#000000" stroke="none">
<path d="M2195 2540 c-4 -20 -13 -30 -25 -30 -24 0 -43 -34 -35 -60 5 -15 15
-20 44 -20 36 0 37 1 37 33 0 17 3 49 7 70 6 29 5 37 -7 37 -8 0 -17 -13 -21
-30z m-11 -62 c-8 -28 -12 -33 -20 -25 -9 8 6 47 17 47 6 0 7 -10 3 -22z"/>
<path d="M2460 2538 c0 -25 3 -29 10 -18 13 20 13 50 0 50 -5 0 -10 -15 -10
-32z"/>
<path d="M1960 2545 c0 -9 -11 -38 -25 -65 -14 -28 -20 -50 -14 -50 6 0 13 9
16 20 7 26 39 26 46 1 4 -16 13 -20 46 -19 36 0 41 3 41 24 0 12 5 26 11 30 8
4 9 -3 4 -25 -6 -27 -4 -31 14 -31 11 0 23 5 26 10 3 6 2 10 -4 10 -6 0 -8 12
-4 30 5 29 4 30 -33 30 -35 0 -39 -3 -40 -26 -4 -61 -34 -38 -34 27 0 46 -2
49 -25 49 -16 0 -25 -6 -25 -15z m16 -52 c-11 -11 -17 4 -9 23 7 18 8 18 11 1
2 -10 1 -21 -2 -24z"/>
<path d="M2334 2545 c-18 -15 -18 -15 5 -13 14 2 26 9 29 16 5 17 -10 15 -34
-3z"/>
<path d="M2544 2533 c0 -16 -4 -45 -8 -65 -7 -31 -5 -38 7 -38 9 0 18 13 22
32 l7 31 14 -31 c9 -21 20 -32 34 -32 23 0 27 15 5 24 -17 6 -20 42 -5 51 6 3
10 17 10 31 0 22 -4 24 -42 24 -40 0 -43 -2 -44 -27z m56 8 c0 -16 -12 -41
-20 -41 -4 0 -5 11 -2 25 4 23 22 36 22 16z"/>
<path d="M2815 2551 c-7 -12 12 -24 25 -16 11 7 4 25 -10 25 -5 0 -11 -4 -15
-9z"/>
<path d="M2240 2493 c0 -10 -3 -28 -6 -40 -5 -17 -2 -23 9 -23 9 0 18 13 22
30 4 17 13 30 21 30 8 0 14 5 14 10 0 6 -13 10 -30 10 -22 0 -30 -5 -30 -17z"/>
<path d="M2310 2496 c-6 -8 -10 -25 -8 -38 3 -21 8 -23 68 -23 l65 0 1 38 c1
32 -2 37 -22 37 -30 0 -37 -13 -19 -36 8 -10 14 -23 15 -29 0 -5 -4 -4 -8 3
-7 9 -15 10 -35 3 -15 -6 -29 -6 -32 -1 -3 5 4 11 15 15 29 9 26 45 -4 45 -13
0 -29 -7 -36 -14z m40 -5 c0 -6 -4 -13 -10 -16 -5 -3 -10 1 -10 9 0 9 5 16 10
16 6 0 10 -4 10 -9z"/>
<path d="M2660 2496 c-28 -35 13 -88 44 -56 8 8 7 10 -6 5 -24 -10 -23 7 2 23
11 7 20 19 20 27 0 19 -44 20 -60 1z m34 -11 c-4 -8 -8 -15 -10 -15 -2 0 -4 7
-4 15 0 8 4 15 10 15 5 0 7 -7 4 -15z"/>
<path d="M2730 2490 c-16 -30 -4 -60 25 -60 13 0 27 4 30 10 3 6 -1 7 -9 4
-20 -8 -31 19 -17 43 6 10 11 12 11 6 0 -7 7 -13 16 -13 26 0 10 25 -19 28
-18 2 -29 -3 -37 -18z"/>
<path d="M2806 2479 c-9 -45 -8 -49 12 -49 14 0 18 9 19 40 2 49 -21 56 -31 9z"/>
<path d="M2860 2496 c0 -7 -3 -34 -6 -60 -6 -38 -4 -46 10 -46 9 0 16 8 16 20
0 13 7 20 20 20 11 0 23 7 27 16 6 15 7 15 18 1 8 -11 27 -15 70 -14 l60 2 1
37 1 36 -59 0 c-44 0 -61 -4 -65 -15 -5 -13 -7 -13 -15 1 -11 20 -78 22 -78 2z
m121 -19 c-10 -9 -11 -8 -5 6 3 10 9 15 12 12 3 -3 0 -11 -7 -18z m-71 1 c0
-17 -18 -44 -24 -37 -8 7 5 49 15 49 5 0 9 -6 9 -12z m130 -12 c9 -12 10 -17
3 -12 -7 4 -22 2 -34 -4 -15 -9 -24 -9 -32 -1 -8 8 -7 11 5 11 8 0 21 7 28 15
7 9 13 14 14 13 1 -2 8 -12 16 -22z"/>
</g>
</svg>
